<?xml version="1.0" encoding="UTF-8"?>
<svg xmlns="http://www.w3.org/2000/svg" xmlns:xlink="http://www.w3.org/1999/xlink" width="99.75pt" height="36.75pt" viewBox="0 0 99.75 36.75" version="1.1">
<g id="surface2">
<path style=" stroke:none;fill-rule:nonzero;fill:rgb(20.392157%,16.470588%,52.54902%);fill-opacity:1;" d="M 8.601562 4.882812 L 15.585938 4.882812 C 17.476562 4.882812 18.894531 5.03125 19.832031 5.324219 C 20.777344 5.625 21.429688 6.050781 21.796875 6.605469 C 22.164062 7.167969 22.34375 7.84375 22.328125 8.636719 C 22.3125 9.433594 22.09375 10.667969 21.675781 12.335938 L 21.097656 14.660156 C 20.671875 16.363281 20.191406 17.601562 19.644531 18.378906 C 19.097656 19.160156 18.300781 19.757812 17.257812 20.171875 C 16.214844 20.59375 14.933594 20.792969 13.417969 20.792969 L 11.558594 20.792969 L 8.875 31.53125 L 1.933594 31.539062 Z M 14.390625 9.441406 L 12.695312 16.230469 C 12.890625 16.238281 13.054688 16.246094 13.207031 16.246094 C 13.84375 16.246094 14.324219 16.089844 14.648438 15.773438 C 14.972656 15.457031 15.261719 14.8125 15.503906 13.824219 L 16.050781 11.632812 C 16.277344 10.71875 16.285156 10.125 16.066406 9.855469 C 15.847656 9.578125 15.292969 9.441406 14.394531 9.441406 Z M 14.390625 9.441406 "/>
<path style=" stroke:none;fill-rule:nonzero;fill:rgb(20.392157%,16.470588%,52.54902%);fill-opacity:1;" d="M 30.789062 9.691406 L 29.804688 12.5625 C 31.28125 10.507812 32.953125 9.414062 34.820312 9.292969 L 32.898438 16.988281 C 31.675781 16.988281 30.746094 17.152344 30.09375 17.484375 C 29.441406 17.8125 28.976562 18.273438 28.699219 18.855469 C 28.421875 19.441406 28.015625 20.796875 27.484375 22.914062 L 25.324219 31.546875 L 18.671875 31.546875 L 24.132812 9.691406 Z M 30.789062 9.691406 "/>
<path style=" stroke:none;fill-rule:nonzero;fill:rgb(20.392157%,16.470588%,52.54902%);fill-opacity:1;" d="M 49.34375 17.371094 L 48.007812 22.726562 C 47.511719 24.691406 47.054688 26.132812 46.628906 27.054688 C 46.203125 27.96875 45.5625 28.832031 44.714844 29.628906 C 43.867188 30.425781 42.890625 31.007812 41.78125 31.390625 C 40.671875 31.765625 39.457031 31.960938 38.136719 31.960938 C 36.667969 31.960938 35.460938 31.796875 34.523438 31.472656 C 33.585938 31.148438 32.910156 30.664062 32.507812 30.011719 C 32.101562 29.359375 31.898438 28.5625 31.894531 27.640625 C 31.886719 26.710938 32.113281 25.324219 32.578125 23.464844 L 33.980469 17.863281 C 34.492188 15.832031 35.105469 14.25 35.824219 13.101562 C 36.550781 11.960938 37.570312 11.039062 38.882812 10.347656 C 40.195312 9.65625 41.746094 9.3125 43.523438 9.3125 C 45.015625 9.3125 46.246094 9.539062 47.207031 9.980469 C 48.167969 10.421875 48.847656 11.007812 49.253906 11.71875 C 49.660156 12.429688 49.867188 13.167969 49.898438 13.921875 C 49.921875 14.679688 49.742188 15.835938 49.359375 17.378906 Z M 43.101562 15.71875 C 43.378906 14.601562 43.5 13.894531 43.445312 13.605469 C 43.398438 13.3125 43.175781 13.171875 42.777344 13.171875 C 42.378906 13.171875 42.078125 13.3125 41.878906 13.605469 C 41.675781 13.898438 41.429688 14.601562 41.152344 15.71875 L 38.683594 25.589844 C 38.429688 26.625 38.324219 27.292969 38.375 27.605469 C 38.425781 27.921875 38.644531 28.078125 39.035156 28.078125 C 39.425781 28.078125 39.726562 27.9375 39.925781 27.652344 C 40.121094 27.367188 40.339844 26.753906 40.578125 25.808594 L 43.097656 15.730469 Z M 43.101562 15.71875 "/>
<path style=" stroke:none;fill-rule:nonzero;fill:rgb(20.392157%,16.470588%,52.54902%);fill-opacity:1;" d="M 65.296875 16.671875 L 59.402344 16.671875 L 59.703125 15.488281 C 59.957031 14.476562 60.054688 13.839844 60.011719 13.566406 C 59.964844 13.296875 59.710938 13.160156 59.246094 13.160156 C 58.871094 13.160156 58.5625 13.28125 58.316406 13.527344 C 58.070312 13.773438 57.882812 14.140625 57.761719 14.636719 C 57.597656 15.304688 57.515625 15.800781 57.535156 16.113281 C 57.550781 16.429688 57.746094 16.765625 58.121094 17.140625 C 58.496094 17.515625 59.3125 18.054688 60.589844 18.769531 C 62.285156 19.714844 63.335938 20.605469 63.726562 21.441406 C 64.125 22.273438 64.125 23.488281 63.726562 25.078125 C 63.285156 26.855469 62.714844 28.199219 62.03125 29.105469 C 61.339844 30.011719 60.394531 30.710938 59.195312 31.199219 C 57.988281 31.6875 56.621094 31.933594 55.101562 31.933594 C 53.40625 31.933594 52.027344 31.671875 50.960938 31.144531 C 49.886719 30.621094 49.242188 29.90625 49.019531 29 C 48.792969 28.101562 48.90625 26.734375 49.363281 24.914062 L 49.625 23.855469 L 55.519531 23.855469 L 55.175781 25.234375 C 54.882812 26.410156 54.761719 27.167969 54.824219 27.523438 C 54.882812 27.875 55.132812 28.046875 55.574219 28.046875 C 56.046875 28.046875 56.40625 27.925781 56.652344 27.695312 C 56.898438 27.460938 57.117188 26.960938 57.304688 26.203125 C 57.566406 25.160156 57.605469 24.507812 57.433594 24.246094 C 57.246094 23.984375 56.152344 23.203125 54.148438 21.90625 C 52.46875 20.8125 51.523438 19.8125 51.320312 18.914062 C 51.117188 18.023438 51.171875 16.957031 51.476562 15.726562 C 51.910156 13.980469 52.464844 12.695312 53.132812 11.863281 C 53.800781 11.03125 54.746094 10.394531 55.960938 9.941406 C 57.175781 9.492188 58.519531 9.265625 59.972656 9.265625 C 61.425781 9.265625 62.605469 9.453125 63.535156 9.820312 C 64.457031 10.1875 65.117188 10.675781 65.507812 11.273438 C 65.898438 11.882812 66.09375 12.4375 66.078125 12.953125 C 66.0625 13.46875 65.921875 14.273438 65.644531 15.375 L 65.328125 16.640625 Z M 65.296875 16.671875 "/>
<path style=" stroke:none;fill-rule:nonzero;fill:rgb(20.392157%,16.470588%,52.54902%);fill-opacity:1;" d="M 81.984375 17.941406 L 75.707031 17.941406 L 76.335938 15.421875 C 76.554688 14.542969 76.636719 13.945312 76.570312 13.636719 C 76.503906 13.320312 76.277344 13.164062 75.894531 13.164062 C 75.511719 13.164062 75.21875 13.300781 75.015625 13.578125 C 74.8125 13.855469 74.59375 14.46875 74.355469 15.421875 L 71.777344 25.734375 C 71.582031 26.515625 71.539062 27.097656 71.636719 27.488281 C 71.734375 27.878906 71.980469 28.074219 72.363281 28.074219 C 72.8125 28.074219 73.164062 27.871094 73.429688 27.464844 C 73.691406 27.058594 73.960938 26.289062 74.246094 25.164062 L 74.898438 22.5625 L 80.832031 22.5625 C 80.382812 24.308594 79.992188 25.613281 79.660156 26.492188 C 79.332031 27.363281 78.738281 28.261719 77.882812 29.175781 C 77.035156 30.089844 76.054688 30.789062 74.933594 31.253906 C 73.816406 31.71875 72.527344 31.953125 71.054688 31.953125 C 69.179688 31.953125 67.769531 31.628906 66.832031 30.992188 C 65.894531 30.347656 65.339844 29.445312 65.175781 28.292969 C 65.011719 27.136719 65.191406 25.488281 65.722656 23.359375 L 67.273438 17.148438 C 67.738281 15.296875 68.269531 13.894531 68.886719 12.949219 C 69.496094 12.003906 70.5 11.164062 71.910156 10.421875 C 73.3125 9.679688 74.886719 9.3125 76.636719 9.3125 C 78.382812 9.3125 79.765625 9.679688 80.808594 10.414062 C 81.851562 11.148438 82.445312 12.078125 82.5625 13.195312 C 82.691406 14.3125 82.496094 15.902344 81.984375 17.957031 Z M 81.984375 17.941406 "/>
<path style=" stroke:none;fill-rule:nonzero;fill:rgb(20.392157%,16.470588%,52.54902%);fill-opacity:1;" d="M 92.871094 9.691406 L 87.410156 31.546875 L 80.554688 31.546875 L 86.015625 9.691406 Z M 94.074219 4.882812 L 93.203125 8.355469 L 86.347656 8.355469 L 87.21875 4.882812 Z M 94.074219 4.882812 "/>
<path style=" stroke:none;fill-rule:nonzero;fill:rgb(20.392157%,16.470588%,52.54902%);fill-opacity:1;" d="M 96.269531 4.808594 C 96.71875 4.808594 97.085938 4.964844 97.378906 5.273438 C 97.671875 5.582031 97.8125 5.949219 97.8125 6.359375 C 97.8125 6.773438 97.664062 7.15625 97.371094 7.453125 C 97.078125 7.761719 96.71875 7.910156 96.304688 7.910156 C 95.890625 7.910156 95.53125 7.761719 95.238281 7.453125 C 94.945312 7.152344 94.796875 6.785156 94.796875 6.359375 C 94.796875 6.058594 94.871094 5.78125 95.03125 5.527344 C 95.1875 5.273438 95.382812 5.09375 95.617188 4.980469 C 95.851562 4.867188 96.066406 4.808594 96.269531 4.808594 Z M 96.34375 5.109375 C 95.976562 5.109375 95.675781 5.238281 95.445312 5.484375 C 95.210938 5.738281 95.101562 6.023438 95.101562 6.363281 C 95.101562 6.699219 95.222656 7 95.453125 7.25 C 95.6875 7.496094 95.976562 7.617188 96.308594 7.617188 C 96.636719 7.617188 96.921875 7.496094 97.164062 7.25 C 97.402344 7.003906 97.523438 6.710938 97.523438 6.363281 C 97.523438 6.125 97.464844 5.90625 97.34375 5.710938 C 97.222656 5.507812 97.074219 5.367188 96.886719 5.261719 C 96.699219 5.164062 96.519531 5.113281 96.347656 5.113281 Z M 95.648438 7.183594 L 95.648438 5.535156 L 96.40625 5.535156 C 96.59375 5.535156 96.730469 5.582031 96.820312 5.671875 C 96.902344 5.761719 96.949219 5.875 96.949219 6 C 96.949219 6.128906 96.910156 6.234375 96.84375 6.308594 C 96.769531 6.382812 96.664062 6.4375 96.519531 6.464844 C 96.585938 6.488281 96.640625 6.523438 96.675781 6.570312 C 96.714844 6.617188 96.773438 6.710938 96.863281 6.855469 L 97.050781 7.183594 L 96.652344 7.183594 L 96.515625 6.921875 C 96.433594 6.765625 96.367188 6.660156 96.304688 6.597656 C 96.246094 6.539062 96.164062 6.515625 96.066406 6.515625 L 95.984375 6.515625 L 95.984375 7.191406 L 95.660156 7.191406 Z M 95.96875 6.246094 L 96.230469 6.246094 C 96.367188 6.246094 96.457031 6.230469 96.515625 6.195312 C 96.566406 6.15625 96.597656 6.097656 96.597656 6.023438 C 96.597656 5.949219 96.566406 5.894531 96.515625 5.859375 C 96.464844 5.820312 96.378906 5.808594 96.269531 5.808594 L 95.96875 5.808594 L 95.96875 6.257812 Z M 95.96875 6.246094 "/>
</g>
</svg>
